<svg width="1200" height="700" viewBox="0 0 1200 700" fill="none" xmlns="http://www.w3.org/2000/svg">
  <rect width="1200" height="700" rx="28" fill="#08111F"/>
  <rect x="36" y="36" width="1128" height="628" rx="22" fill="#0F172A" stroke="#263244" stroke-width="2"/>
  <text x="72" y="94" fill="#F8FAFC" font-size="34" font-family="Arial, sans-serif" font-weight="700">Model Performance Comparison</text>
  <text x="72" y="132" fill="#94A3B8" font-size="22" font-family="Arial, sans-serif">Business-oriented comparison centered on fraud detection quality</text>
  <rect x="96" y="186" width="1008" height="388" rx="18" fill="#111827" stroke="#334155"/>
  <rect x="96" y="186" width="1008" height="72" rx="18" fill="#172033"/>
  <line x1="342" y1="186" x2="342" y2="574" stroke="#334155" stroke-width="2"/>
  <line x1="532" y1="186" x2="532" y2="574" stroke="#334155" stroke-width="2"/>
  <line x1="700" y1="186" x2="700" y2="574" stroke="#334155" stroke-width="2"/>
  <line x1="848" y1="186" x2="848" y2="574" stroke="#334155" stroke-width="2"/>
  <line x1="96" y1="322" x2="1104" y2="322" stroke="#334155" stroke-width="2"/>
  <line x1="96" y1="400" x2="1104" y2="400" stroke="#334155" stroke-width="2"/>
  <line x1="96" y1="478" x2="1104" y2="478" stroke="#334155" stroke-width="2"/>
  <text x="132" y="232" fill="#E2E8F0" font-size="24" font-family="Arial, sans-serif" font-weight="700">Model</text>
  <text x="390" y="232" fill="#E2E8F0" font-size="24" font-family="Arial, sans-serif" font-weight="700">Precision</text>
  <text x="578" y="232" fill="#E2E8F0" font-size="24" font-family="Arial, sans-serif" font-weight="700">Recall</text>
  <text x="752" y="232" fill="#E2E8F0" font-size="24" font-family="Arial, sans-serif" font-weight="700">ROC-AUC</text>
  <text x="900" y="232" fill="#E2E8F0" font-size="24" font-family="Arial, sans-serif" font-weight="700">Takeaway</text>
  <text x="132" y="300" fill="#CBD5E1" font-size="22" font-family="Arial, sans-serif">Logistic Regression</text>
  <text x="414" y="300" fill="#CBD5E1" font-size="22" font-family="Arial, sans-serif">Baseline</text>
  <text x="585" y="300" fill="#CBD5E1" font-size="22" font-family="Arial, sans-serif">Low</text>
  <text x="770" y="300" fill="#CBD5E1" font-size="22" font-family="Arial, sans-serif">Good</text>
  <text x="886" y="300" fill="#CBD5E1" font-size="22" font-family="Arial, sans-serif">Weak on fraud capture</text>
  <text x="132" y="378" fill="#CBD5E1" font-size="22" font-family="Arial, sans-serif">Threshold 0.3</text>
  <text x="414" y="378" fill="#CBD5E1" font-size="22" font-family="Arial, sans-serif">Trade-off</text>
  <text x="585" y="378" fill="#CBD5E1" font-size="22" font-family="Arial, sans-serif">Improved</text>
  <text x="770" y="378" fill="#CBD5E1" font-size="22" font-family="Arial, sans-serif">Good</text>
  <text x="886" y="378" fill="#CBD5E1" font-size="22" font-family="Arial, sans-serif">Better recall focus</text>
  <text x="132" y="456" fill="#CBD5E1" font-size="22" font-family="Arial, sans-serif">Random Forest</text>
  <text x="430" y="456" fill="#E2E8F0" font-size="22" font-family="Arial, sans-serif" font-weight="700">0.83</text>
  <text x="595" y="456" fill="#E2E8F0" font-size="22" font-family="Arial, sans-serif" font-weight="700">0.76</text>
  <text x="770" y="456" fill="#E2E8F0" font-size="22" font-family="Arial, sans-serif" font-weight="700">High</text>
  <text x="886" y="456" fill="#E2E8F0" font-size="22" font-family="Arial, sans-serif">Highest recall balance</text>
  <rect x="96" y="478" width="1008" height="96" rx="0" fill="#052E16" fill-opacity="0.42"/>
  <text x="132" y="534" fill="#86EFAC" font-size="22" font-family="Arial, sans-serif" font-weight="700">XGBoost</text>
  <text x="430" y="534" fill="#86EFAC" font-size="22" font-family="Arial, sans-serif" font-weight="700">0.94</text>
  <text x="595" y="534" fill="#86EFAC" font-size="22" font-family="Arial, sans-serif" font-weight="700">0.73</text>
  <text x="760" y="534" fill="#86EFAC" font-size="22" font-family="Arial, sans-serif" font-weight="700">0.97</text>
  <text x="886" y="534" fill="#86EFAC" font-size="22" font-family="Arial, sans-serif" font-weight="700">Best overall performer</text>
</svg>
