<svg width="1200" height="700" viewBox="0 0 1200 700" fill="none" xmlns="http://www.w3.org/2000/svg">
  <rect width="1200" height="700" rx="28" fill="#08111F"/>
  <rect x="36" y="36" width="1128" height="628" rx="22" fill="#0F172A" stroke="#263244" stroke-width="2"/>
  <text x="72" y="94" fill="#F8FAFC" font-size="34" font-family="Arial, sans-serif" font-weight="700">ROC Curve Comparison</text>
  <text x="72" y="132" fill="#94A3B8" font-size="22" font-family="Arial, sans-serif">XGBoost leads on discrimination power with ROC-AUC 0.97</text>
  <line x1="150" y1="564" x2="964" y2="564" stroke="#94A3B8" stroke-width="4"/>
  <line x1="150" y1="564" x2="150" y2="186" stroke="#94A3B8" stroke-width="4"/>
  <line x1="150" y1="564" x2="920" y2="220" stroke="#475569" stroke-width="3" stroke-dasharray="10 10"/>
  <path d="M150 564C220 520 280 465 352 395C436 314 544 236 920 128" stroke="#22C55E" stroke-width="7" stroke-linecap="round"/>
  <path d="M150 564C246 534 326 474 408 402C506 316 630 266 920 176" stroke="#38BDF8" stroke-width="6" stroke-linecap="round"/>
  <path d="M150 564C262 558 366 520 456 450C566 364 690 306 920 250" stroke="#F59E0B" stroke-width="6" stroke-linecap="round"/>
  <path d="M150 564C198 494 258 420 338 352C448 258 584 202 920 138" stroke="#EF4444" stroke-width="8" stroke-linecap="round"/>
  <rect x="834" y="330" width="258" height="176" rx="18" fill="#111827" stroke="#334155"/>
  <circle cx="866" cy="376" r="8" fill="#EF4444"/>
  <text x="886" y="383" fill="#E2E8F0" font-size="21" font-family="Arial, sans-serif">XGBoost  AUC 0.97</text>
  <circle cx="866" cy="416" r="8" fill="#22C55E"/>
  <text x="886" y="423" fill="#E2E8F0" font-size="21" font-family="Arial, sans-serif">Random Forest</text>
  <circle cx="866" cy="456" r="8" fill="#38BDF8"/>
  <text x="886" y="463" fill="#E2E8F0" font-size="21" font-family="Arial, sans-serif">Threshold 0.3</text>
  <circle cx="866" cy="496" r="8" fill="#F59E0B"/>
  <text x="886" y="503" fill="#E2E8F0" font-size="21" font-family="Arial, sans-serif">Logistic baseline</text>
  <text x="466" y="626" fill="#CBD5E1" font-size="22" font-family="Arial, sans-serif">False Positive Rate</text>
  <text x="58" y="402" transform="rotate(-90 58 402)" fill="#CBD5E1" font-size="22" font-family="Arial, sans-serif">True Positive Rate</text>
</svg>
